<?xml version="1.0" standalone="no"?><!DOCTYPE svg PUBLIC "-//W3C//DTD SVG 1.1//EN" "http://www.w3.org/Graphics/SVG/1.1/DTD/svg11.dtd"><svg t="1678271614553" class="icon" viewBox="0 0 1024 1024" version="1.1" xmlns="http://www.w3.org/2000/svg" p-id="2483" xmlns:xlink="http://www.w3.org/1999/xlink" width="200" height="200"><path d="M512.003612-0.001204C229.233602-0.001204 0.001204 229.231194 0.001204 512.002408c0 282.767602 229.232398 511.997592 512.002408 511.997592s512-229.22999 512-511.997592c0.001204-282.771214-229.22999-512.003612-512-512.003612zM330.796238 304.607229c5.048991-9.332145 12.241366-17.725055 20.941333-25.031823 16.080189 31.458359 55.28483 108.368479 64.99869 130.821017 24.576655 56.676825 6.674591 106.858477-49.372465 119.210625v0.016858c-26.792287 5.853362-49.238805-1.909778-66.703763-13.4997 9.653652-97.850248 10.978215-176.216182 30.136205-211.516977z m413.895677 203.9465c-45.325324 59.758239-128.867889 33.599334-162.086713 68.838717-15.947732 16.902622-22.506725 42.624421-23.824063 70.618448a170.423027 170.423027 0 0 1 69.855018 99.862379 25.618243 25.618243 0 0 1-22.834253 37.192511 21.253207 21.253207 0 0 1-2.139771-0.128844H305.459766l-0.380511-0.369674a42.66175 42.66175 0 0 1-42.697874-19.609545 42.662954 42.662954 0 0 1 1.221006-46.973803c9.080478-28.184282 18.281371-63.911345 25.148625-107.048733a1517.825798 1517.825798 0 0 0 6.497581-45.819025c21.994962 11.780177 51.368942 17.899656 88.633702 6.59873 63.619941-19.23626 104.788547-79.875935 78.178086-154.512624-9.2611-25.85546-47.907017-105.728987-74.25979-159.254557 67.199872-28.817663 167.307897-24.840363 206.336734 11.648925 38.515869 36.006425 18.415031 70.121134 65.073347 93.75735 28.551547 14.436527 62.032874 14.436527 83.777374 12.236549a22.551279 22.551279 0 0 1 24.840363 21.626493c1.14394 30.638335-0.820025 81.771264-23.136494 111.336703z" fill="#070001" p-id="2484"></path><path d="M558.452407 343.619207c-17.765996 0-32.203727 14.441344-32.203727 32.281996-0.016858 17.805732 14.397994 32.253097 32.203727 32.278384 17.785262 0 32.222993-14.436527 32.222993-32.278384 0-17.840653-14.437731-32.281996-32.222993-32.281996z" fill="#070001" p-id="2485"></path></svg>